<svg width="84" height="28" viewBox="0 0 84 28" fill="none" xmlns="http://www.w3.org/2000/svg">
<path d="M6.11719 4.9375L10.5 17.3125L14.8594 4.9375H19.4766V22H15.9492V17.3359L16.3008 9.28516L11.6953 22H9.28125L4.6875 9.29688L5.03906 17.3359V22H1.52344V4.9375H6.11719ZM27.0586 17.207L29.4023 9.32031H33.0352L27.9375 23.9688L27.6562 24.6367C26.8984 26.293 25.6484 27.1211 23.9062 27.1211C23.4141 27.1211 22.9141 27.0469 22.4062 26.8984V24.332L22.9219 24.3438C23.5625 24.3438 24.0391 24.2461 24.3516 24.0508C24.6719 23.8555 24.9219 23.5312 25.1016 23.0781L25.5 22.0352L21.0586 9.32031H24.7031L27.0586 17.207Z" fill="#111821"/>
<path d="M54.0703 19.8438C53.4375 20.6016 52.543 21.1914 51.3867 21.6133C50.2305 22.0273 48.9492 22.2344 47.543 22.2344C46.0664 22.2344 44.7695 21.9141 43.6523 21.2734C42.543 20.625 41.6836 19.6875 41.0742 18.4609C40.4727 17.2344 40.1641 15.793 40.1484 14.1367V12.9766C40.1484 11.2734 40.4336 9.80078 41.0039 8.55859C41.582 7.30859 42.4102 6.35547 43.4883 5.69922C44.5742 5.03516 45.8438 4.70312 47.2969 4.70312C49.3203 4.70312 50.9023 5.1875 52.043 6.15625C53.1836 7.11719 53.8594 8.51953 54.0703 10.3633H50.6484C50.4922 9.38672 50.1445 8.67188 49.6055 8.21875C49.0742 7.76562 48.3398 7.53906 47.4023 7.53906C46.207 7.53906 45.2969 7.98828 44.6719 8.88672C44.0469 9.78516 43.7305 11.1211 43.7227 12.8945V13.9844C43.7227 15.7734 44.0625 17.125 44.7422 18.0391C45.4219 18.9531 46.418 19.4102 47.7305 19.4102C49.0508 19.4102 49.9922 19.1289 50.5547 18.5664V15.625H47.3555V13.0352H54.0703V19.8438ZM60.2812 22H56.8828V9.32031H60.2812V22ZM56.6836 6.03906C56.6836 5.53125 56.8516 5.11328 57.1875 4.78516C57.5312 4.45703 57.9961 4.29297 58.582 4.29297C59.1602 4.29297 59.6211 4.45703 59.9648 4.78516C60.3086 5.11328 60.4805 5.53125 60.4805 6.03906C60.4805 6.55469 60.3047 6.97656 59.9531 7.30469C59.6094 7.63281 59.1523 7.79688 58.582 7.79688C58.0117 7.79688 57.5508 7.63281 57.1992 7.30469C56.8555 6.97656 56.6836 6.55469 56.6836 6.03906ZM70.207 12.4961C69.7461 12.4336 69.3398 12.4023 68.9883 12.4023C67.707 12.4023 66.8672 12.8359 66.4688 13.7031V22H63.082V9.32031H66.2812L66.375 10.832C67.0547 9.66797 67.9961 9.08594 69.1992 9.08594C69.5742 9.08594 69.9258 9.13672 70.2539 9.23828L70.207 12.4961ZM70.8984 15.543C70.8984 14.2852 71.1406 13.1641 71.625 12.1797C72.1094 11.1953 72.8047 10.4336 73.7109 9.89453C74.625 9.35547 75.6836 9.08594 76.8867 9.08594C78.5977 9.08594 79.9922 9.60938 81.0703 10.6562C82.1562 11.7031 82.7617 13.125 82.8867 14.9219L82.9102 15.7891C82.9102 17.7344 82.3672 19.2969 81.2812 20.4766C80.1953 21.6484 78.7383 22.2344 76.9102 22.2344C75.082 22.2344 73.6211 21.6484 72.5273 20.4766C71.4414 19.3047 70.8984 17.7109 70.8984 15.6953V15.543ZM74.2852 15.7891C74.2852 16.9922 74.5117 17.9141 74.9648 18.5547C75.418 19.1875 76.0664 19.5039 76.9102 19.5039C77.7305 19.5039 78.3711 19.1914 78.832 18.5664C79.293 17.9336 79.5234 16.9258 79.5234 15.543C79.5234 14.3633 79.293 13.4492 78.832 12.8008C78.3711 12.1523 77.7227 11.8281 76.8867 11.8281C76.0586 11.8281 75.418 12.1523 74.9648 12.8008C74.5117 13.4414 74.2852 14.4375 74.2852 15.7891Z" fill="#E93947"/>
</svg>
