<svg width="82" height="24" viewBox="0 0 82 24" fill="none" xmlns="http://www.w3.org/2000/svg">
<path d="M5.11719 0.9375L9.5 13.3125L13.8594 0.9375H18.4766V18H14.9492V13.3359L15.3008 5.28516L10.6953 18H8.28125L3.6875 5.29688L4.03906 13.3359V18H0.523438V0.9375H5.11719ZM26.0586 13.207L28.4023 5.32031H32.0352L26.9375 19.9688L26.6562 20.6367C25.8984 22.293 24.6484 23.1211 22.9062 23.1211C22.4141 23.1211 21.9141 23.0469 21.4062 22.8984V20.332L21.9219 20.3438C22.5625 20.3438 23.0391 20.2461 23.3516 20.0508C23.6719 19.8555 23.9219 19.5312 24.1016 19.0781L24.5 18.0352L20.0586 5.32031H23.7031L26.0586 13.207Z" fill="white"/>
<path d="M53.0703 15.8438C52.4375 16.6016 51.543 17.1914 50.3867 17.6133C49.2305 18.0273 47.9492 18.2344 46.543 18.2344C45.0664 18.2344 43.7695 17.9141 42.6523 17.2734C41.543 16.625 40.6836 15.6875 40.0742 14.4609C39.4727 13.2344 39.1641 11.793 39.1484 10.1367V8.97656C39.1484 7.27344 39.4336 5.80078 40.0039 4.55859C40.582 3.30859 41.4102 2.35547 42.4883 1.69922C43.5742 1.03516 44.8438 0.703125 46.2969 0.703125C48.3203 0.703125 49.9023 1.1875 51.043 2.15625C52.1836 3.11719 52.8594 4.51953 53.0703 6.36328H49.6484C49.4922 5.38672 49.1445 4.67188 48.6055 4.21875C48.0742 3.76562 47.3398 3.53906 46.4023 3.53906C45.207 3.53906 44.2969 3.98828 43.6719 4.88672C43.0469 5.78516 42.7305 7.12109 42.7227 8.89453V9.98438C42.7227 11.7734 43.0625 13.125 43.7422 14.0391C44.4219 14.9531 45.418 15.4102 46.7305 15.4102C48.0508 15.4102 48.9922 15.1289 49.5547 14.5664V11.625H46.3555V9.03516H53.0703V15.8438ZM59.2812 18H55.8828V5.32031H59.2812V18ZM55.6836 2.03906C55.6836 1.53125 55.8516 1.11328 56.1875 0.785156C56.5312 0.457031 56.9961 0.292969 57.582 0.292969C58.1602 0.292969 58.6211 0.457031 58.9648 0.785156C59.3086 1.11328 59.4805 1.53125 59.4805 2.03906C59.4805 2.55469 59.3047 2.97656 58.9531 3.30469C58.6094 3.63281 58.1523 3.79688 57.582 3.79688C57.0117 3.79688 56.5508 3.63281 56.1992 3.30469C55.8555 2.97656 55.6836 2.55469 55.6836 2.03906ZM69.207 8.49609C68.7461 8.43359 68.3398 8.40234 67.9883 8.40234C66.707 8.40234 65.8672 8.83594 65.4688 9.70312V18H62.082V5.32031H65.2812L65.375 6.83203C66.0547 5.66797 66.9961 5.08594 68.1992 5.08594C68.5742 5.08594 68.9258 5.13672 69.2539 5.23828L69.207 8.49609ZM69.8984 11.543C69.8984 10.2852 70.1406 9.16406 70.625 8.17969C71.1094 7.19531 71.8047 6.43359 72.7109 5.89453C73.625 5.35547 74.6836 5.08594 75.8867 5.08594C77.5977 5.08594 78.9922 5.60938 80.0703 6.65625C81.1562 7.70312 81.7617 9.125 81.8867 10.9219L81.9102 11.7891C81.9102 13.7344 81.3672 15.2969 80.2812 16.4766C79.1953 17.6484 77.7383 18.2344 75.9102 18.2344C74.082 18.2344 72.6211 17.6484 71.5273 16.4766C70.4414 15.3047 69.8984 13.7109 69.8984 11.6953V11.543ZM73.2852 11.7891C73.2852 12.9922 73.5117 13.9141 73.9648 14.5547C74.418 15.1875 75.0664 15.5039 75.9102 15.5039C76.7305 15.5039 77.3711 15.1914 77.832 14.5664C78.293 13.9336 78.5234 12.9258 78.5234 11.543C78.5234 10.3633 78.293 9.44922 77.832 8.80078C77.3711 8.15234 76.7227 7.82812 75.8867 7.82812C75.0586 7.82812 74.418 8.15234 73.9648 8.80078C73.5117 9.44141 73.2852 10.4375 73.2852 11.7891Z" fill="#E93947"/>
</svg>
