<svg width="25" height="26" viewBox="0 0 25 26" fill="none" xmlns="http://www.w3.org/2000/svg">
<path d="M20.3303 25.9819C16.9173 25.7963 14.0918 24.9525 11.5012 23.4787C5.05711 19.8111 1.36217 14.3434 0.163809 7.29506C-0.0241688 6.2094 -0.0241688 5.11249 0.0345743 4.02121C0.116815 2.56991 2.72501 0.106084 4.24645 0.00483053C5.48593 -0.073922 7.0015 0.820481 7.4362 1.93989C8.0295 3.44181 8.32909 5.01686 8.56994 6.59754C8.66393 7.19381 8.42308 7.68882 8.01775 8.12196C7.53019 8.63948 7.025 9.14012 6.44931 9.56201C6.03224 9.86577 5.95587 10.1583 6.17322 10.6195C7.25997 12.9315 8.75792 14.9622 10.6964 16.6835C11.8184 17.6791 12.9874 18.6017 14.3091 19.3554C14.6616 19.5579 14.9024 19.5579 15.2138 19.2823C15.8012 18.7648 16.4004 18.2585 17.0642 17.831C17.6046 17.4879 18.1627 17.3472 18.8147 17.5385C20.3949 17.9998 21.981 18.4385 23.4437 19.1923C25.0826 20.0417 25.5173 22.2355 24.3131 23.5743C23.7903 24.1537 23.2205 24.6881 22.5625 25.1325C21.7871 25.6669 20.9647 26.0944 20.3303 25.9819Z" fill="#F42434"/>
</svg>
